<mxfile host="app.diagrams.net" modified="2023-05-09T23:00:08.603Z" agent="Mozilla/5.0 (Windows NT 10.0; Win64; x64) AppleWebKit/537.36 (KHTML, like Gecko) Chrome/112.0.0.0 Safari/537.36" etag="mhxO37VRXNRxpG0DJtzt" version="21.2.9" type="device">
  <diagram name="Page-1" id="DMTds5n_ULmZM69jfjP5">
    <mxGraphModel dx="4175" dy="5139" grid="1" gridSize="10" guides="1" tooltips="1" connect="1" arrows="1" fold="1" page="1" pageScale="1" pageWidth="3300" pageHeight="4681" math="0" shadow="0">
      <root>
        <mxCell id="0" />
        <mxCell id="1" parent="0" />
        <mxCell id="foM4KtlyLQ7H9cVgBxTa-3" value="Victim" style="rounded=1;arcSize=10;whiteSpace=wrap;html=1;align=center;" vertex="1" parent="1">
          <mxGeometry x="260" y="240" width="100" height="40" as="geometry" />
        </mxCell>
        <mxCell id="foM4KtlyLQ7H9cVgBxTa-4" value="Request" style="rounded=1;arcSize=10;whiteSpace=wrap;html=1;align=center;" vertex="1" parent="1">
          <mxGeometry x="590" y="240" width="100" height="40" as="geometry" />
        </mxCell>
        <mxCell id="foM4KtlyLQ7H9cVgBxTa-5" value="Donator" style="rounded=1;arcSize=10;whiteSpace=wrap;html=1;align=center;" vertex="1" parent="1">
          <mxGeometry x="260" y="360" width="100" height="40" as="geometry" />
        </mxCell>
        <mxCell id="foM4KtlyLQ7H9cVgBxTa-6" value="Donation" style="rounded=1;arcSize=10;whiteSpace=wrap;html=1;align=center;" vertex="1" parent="1">
          <mxGeometry x="590" y="360" width="100" height="40" as="geometry" />
        </mxCell>
        <mxCell id="KlQoxb9SCwai2NdPsXT3-35" style="edgeStyle=orthogonalEdgeStyle;rounded=0;orthogonalLoop=1;jettySize=auto;html=1;endArrow=none;endFill=0;startArrow=ERzeroToMany;startFill=0;" edge="1" parent="1" source="foM4KtlyLQ7H9cVgBxTa-7" target="KlQoxb9SCwai2NdPsXT3-34">
          <mxGeometry relative="1" as="geometry">
            <Array as="points">
              <mxPoint x="1080" y="320" />
            </Array>
          </mxGeometry>
        </mxCell>
        <mxCell id="foM4KtlyLQ7H9cVgBxTa-7" value="Item" style="rounded=1;arcSize=10;whiteSpace=wrap;html=1;align=center;" vertex="1" parent="1">
          <mxGeometry x="920" y="300" width="100" height="40" as="geometry" />
        </mxCell>
        <mxCell id="foM4KtlyLQ7H9cVgBxTa-8" value="Cash" style="rounded=1;arcSize=10;whiteSpace=wrap;html=1;align=center;" vertex="1" parent="1">
          <mxGeometry x="900" y="-20" width="100" height="40" as="geometry" />
        </mxCell>
        <mxCell id="foM4KtlyLQ7H9cVgBxTa-9" value="Order" style="rounded=1;arcSize=10;whiteSpace=wrap;html=1;align=center;" vertex="1" parent="1">
          <mxGeometry x="920" y="120" width="100" height="40" as="geometry" />
        </mxCell>
        <mxCell id="foM4KtlyLQ7H9cVgBxTa-10" value="Supplier" style="rounded=1;arcSize=10;whiteSpace=wrap;html=1;align=center;" vertex="1" parent="1">
          <mxGeometry x="1150" y="180" width="100" height="40" as="geometry" />
        </mxCell>
        <mxCell id="foM4KtlyLQ7H9cVgBxTa-11" value="OrderDetails" style="rounded=1;arcSize=10;whiteSpace=wrap;html=1;align=center;" vertex="1" parent="1">
          <mxGeometry x="640" y="120" width="100" height="40" as="geometry" />
        </mxCell>
        <mxCell id="foM4KtlyLQ7H9cVgBxTa-12" value="Employee" style="rounded=1;arcSize=10;whiteSpace=wrap;html=1;align=center;" vertex="1" parent="1">
          <mxGeometry x="760" y="560" width="100" height="40" as="geometry" />
        </mxCell>
        <mxCell id="foM4KtlyLQ7H9cVgBxTa-13" value="EmployeeJobs" style="rounded=1;arcSize=10;whiteSpace=wrap;html=1;align=center;" vertex="1" parent="1">
          <mxGeometry x="450" y="560" width="100" height="40" as="geometry" />
        </mxCell>
        <mxCell id="foM4KtlyLQ7H9cVgBxTa-14" value="Vehicle" style="rounded=1;arcSize=10;whiteSpace=wrap;html=1;align=center;" vertex="1" parent="1">
          <mxGeometry x="620" y="470" width="100" height="40" as="geometry" />
        </mxCell>
        <mxCell id="foM4KtlyLQ7H9cVgBxTa-15" value="VehicleStatus" style="rounded=1;arcSize=10;whiteSpace=wrap;html=1;align=center;" vertex="1" parent="1">
          <mxGeometry x="290" y="470" width="100" height="40" as="geometry" />
        </mxCell>
        <mxCell id="KlQoxb9SCwai2NdPsXT3-27" style="edgeStyle=orthogonalEdgeStyle;rounded=0;orthogonalLoop=1;jettySize=auto;html=1;endArrow=none;endFill=0;startArrow=ERmandOne;startFill=0;" edge="1" parent="1" source="foM4KtlyLQ7H9cVgBxTa-16" target="KlQoxb9SCwai2NdPsXT3-26">
          <mxGeometry relative="1" as="geometry">
            <Array as="points" />
          </mxGeometry>
        </mxCell>
        <mxCell id="KlQoxb9SCwai2NdPsXT3-32" style="edgeStyle=orthogonalEdgeStyle;rounded=0;orthogonalLoop=1;jettySize=auto;html=1;startArrow=ERmandOne;startFill=0;endArrow=none;endFill=0;" edge="1" parent="1" source="foM4KtlyLQ7H9cVgBxTa-16" target="KlQoxb9SCwai2NdPsXT3-31">
          <mxGeometry relative="1" as="geometry">
            <Array as="points">
              <mxPoint x="1090" y="500" />
              <mxPoint x="1090" y="490" />
            </Array>
          </mxGeometry>
        </mxCell>
        <mxCell id="foM4KtlyLQ7H9cVgBxTa-16" value="Delivery" style="rounded=1;arcSize=10;whiteSpace=wrap;html=1;align=center;" vertex="1" parent="1">
          <mxGeometry x="920" y="470" width="100" height="40" as="geometry" />
        </mxCell>
        <mxCell id="KlQoxb9SCwai2NdPsXT3-28" style="edgeStyle=orthogonalEdgeStyle;rounded=0;orthogonalLoop=1;jettySize=auto;html=1;startArrow=ERzeroToMany;startFill=0;endArrow=none;endFill=0;" edge="1" parent="1" source="foM4KtlyLQ7H9cVgBxTa-17" target="KlQoxb9SCwai2NdPsXT3-26">
          <mxGeometry relative="1" as="geometry">
            <mxPoint x="970" y="350.00000000000006" as="sourcePoint" />
            <Array as="points" />
          </mxGeometry>
        </mxCell>
        <mxCell id="foM4KtlyLQ7H9cVgBxTa-17" value="DeliveryDetails" style="rounded=1;arcSize=10;whiteSpace=wrap;html=1;align=center;" vertex="1" parent="1">
          <mxGeometry x="920" y="660" width="100" height="40" as="geometry" />
        </mxCell>
        <mxCell id="foM4KtlyLQ7H9cVgBxTa-18" value="LogisticsCompany" style="rounded=1;arcSize=10;whiteSpace=wrap;html=1;align=center;" vertex="1" parent="1">
          <mxGeometry x="1270" y="470" width="100" height="40" as="geometry" />
        </mxCell>
        <mxCell id="foM4KtlyLQ7H9cVgBxTa-22" value="" style="edgeStyle=entityRelationEdgeStyle;fontSize=12;html=1;endArrow=ERmandOne;rounded=0;" edge="1" parent="1" source="foM4KtlyLQ7H9cVgBxTa-23" target="foM4KtlyLQ7H9cVgBxTa-3">
          <mxGeometry width="100" height="100" relative="1" as="geometry">
            <mxPoint x="380" y="310" as="sourcePoint" />
            <mxPoint x="590" y="240" as="targetPoint" />
          </mxGeometry>
        </mxCell>
        <mxCell id="foM4KtlyLQ7H9cVgBxTa-23" value="Makes" style="shape=rhombus;perimeter=rhombusPerimeter;whiteSpace=wrap;html=1;align=center;" vertex="1" parent="1">
          <mxGeometry x="420" y="230" width="120" height="60" as="geometry" />
        </mxCell>
        <mxCell id="foM4KtlyLQ7H9cVgBxTa-24" value="" style="edgeStyle=entityRelationEdgeStyle;fontSize=12;html=1;endArrow=ERzeroToMany;endFill=1;rounded=0;" edge="1" parent="1" source="foM4KtlyLQ7H9cVgBxTa-23" target="foM4KtlyLQ7H9cVgBxTa-4">
          <mxGeometry width="100" height="100" relative="1" as="geometry">
            <mxPoint x="490" y="340" as="sourcePoint" />
            <mxPoint x="590" y="240" as="targetPoint" />
          </mxGeometry>
        </mxCell>
        <mxCell id="foM4KtlyLQ7H9cVgBxTa-25" value="Makes" style="shape=rhombus;perimeter=rhombusPerimeter;whiteSpace=wrap;html=1;align=center;" vertex="1" parent="1">
          <mxGeometry x="420" y="350" width="120" height="60" as="geometry" />
        </mxCell>
        <mxCell id="foM4KtlyLQ7H9cVgBxTa-28" value="" style="edgeStyle=entityRelationEdgeStyle;fontSize=12;html=1;endArrow=ERmandOne;rounded=0;" edge="1" parent="1" source="foM4KtlyLQ7H9cVgBxTa-25" target="foM4KtlyLQ7H9cVgBxTa-5">
          <mxGeometry width="100" height="100" relative="1" as="geometry">
            <mxPoint x="470" y="340" as="sourcePoint" />
            <mxPoint x="570" y="240" as="targetPoint" />
          </mxGeometry>
        </mxCell>
        <mxCell id="foM4KtlyLQ7H9cVgBxTa-29" value="" style="edgeStyle=entityRelationEdgeStyle;fontSize=12;html=1;endArrow=ERzeroToMany;endFill=1;rounded=0;" edge="1" parent="1" source="foM4KtlyLQ7H9cVgBxTa-25" target="foM4KtlyLQ7H9cVgBxTa-6">
          <mxGeometry width="100" height="100" relative="1" as="geometry">
            <mxPoint x="520" y="379" as="sourcePoint" />
            <mxPoint x="560" y="379" as="targetPoint" />
          </mxGeometry>
        </mxCell>
        <mxCell id="foM4KtlyLQ7H9cVgBxTa-30" value="Account" style="rounded=1;arcSize=10;whiteSpace=wrap;html=1;align=center;" vertex="1" parent="1">
          <mxGeometry x="-60" y="300" width="100" height="40" as="geometry" />
        </mxCell>
        <mxCell id="foM4KtlyLQ7H9cVgBxTa-31" value="Has" style="shape=rhombus;perimeter=rhombusPerimeter;whiteSpace=wrap;html=1;align=center;" vertex="1" parent="1">
          <mxGeometry x="100" y="230" width="120" height="60" as="geometry" />
        </mxCell>
        <mxCell id="foM4KtlyLQ7H9cVgBxTa-32" value="" style="edgeStyle=entityRelationEdgeStyle;fontSize=12;html=1;endArrow=ERmandOne;rounded=0;" edge="1" parent="1" source="KlQoxb9SCwai2NdPsXT3-5" target="foM4KtlyLQ7H9cVgBxTa-5">
          <mxGeometry width="100" height="100" relative="1" as="geometry">
            <mxPoint x="100" y="400" as="sourcePoint" />
            <mxPoint x="200" y="430" as="targetPoint" />
          </mxGeometry>
        </mxCell>
        <mxCell id="foM4KtlyLQ7H9cVgBxTa-33" value="" style="edgeStyle=entityRelationEdgeStyle;fontSize=12;html=1;endArrow=ERmandOne;rounded=0;" edge="1" parent="1" source="foM4KtlyLQ7H9cVgBxTa-31" target="foM4KtlyLQ7H9cVgBxTa-3">
          <mxGeometry width="100" height="100" relative="1" as="geometry">
            <mxPoint x="210" y="330" as="sourcePoint" />
            <mxPoint x="270" y="380" as="targetPoint" />
          </mxGeometry>
        </mxCell>
        <mxCell id="foM4KtlyLQ7H9cVgBxTa-34" value="" style="edgeStyle=entityRelationEdgeStyle;fontSize=12;html=1;endArrow=ERmandOne;rounded=0;entryX=1;entryY=0.25;entryDx=0;entryDy=0;" edge="1" parent="1" source="foM4KtlyLQ7H9cVgBxTa-31" target="foM4KtlyLQ7H9cVgBxTa-30">
          <mxGeometry width="100" height="100" relative="1" as="geometry">
            <mxPoint x="210" y="320" as="sourcePoint" />
            <mxPoint x="270" y="380" as="targetPoint" />
          </mxGeometry>
        </mxCell>
        <mxCell id="foM4KtlyLQ7H9cVgBxTa-37" value="" style="edgeStyle=entityRelationEdgeStyle;fontSize=12;html=1;endArrow=ERoneToMany;startArrow=none;rounded=0;startFill=0;entryX=0;entryY=0.25;entryDx=0;entryDy=0;" edge="1" parent="1" source="foM4KtlyLQ7H9cVgBxTa-36" target="foM4KtlyLQ7H9cVgBxTa-7">
          <mxGeometry width="100" height="100" relative="1" as="geometry">
            <mxPoint x="820" y="400" as="sourcePoint" />
            <mxPoint x="920" y="300" as="targetPoint" />
          </mxGeometry>
        </mxCell>
        <mxCell id="foM4KtlyLQ7H9cVgBxTa-38" value="" style="edgeStyle=entityRelationEdgeStyle;fontSize=12;html=1;endArrow=none;startArrow=ERoneToMany;rounded=0;endFill=0;" edge="1" parent="1" source="foM4KtlyLQ7H9cVgBxTa-4" target="foM4KtlyLQ7H9cVgBxTa-36">
          <mxGeometry width="100" height="100" relative="1" as="geometry">
            <mxPoint x="690" y="260" as="sourcePoint" />
            <mxPoint x="950" y="320" as="targetPoint" />
          </mxGeometry>
        </mxCell>
        <mxCell id="foM4KtlyLQ7H9cVgBxTa-36" value="Categorized by" style="shape=rhombus;perimeter=rhombusPerimeter;whiteSpace=wrap;html=1;align=center;" vertex="1" parent="1">
          <mxGeometry x="740" y="230" width="120" height="60" as="geometry" />
        </mxCell>
        <mxCell id="KlQoxb9SCwai2NdPsXT3-2" value="" style="edgeStyle=entityRelationEdgeStyle;fontSize=12;html=1;endArrow=ERoneToMany;startArrow=none;rounded=0;startFill=0;entryX=0;entryY=0.75;entryDx=0;entryDy=0;" edge="1" parent="1" source="KlQoxb9SCwai2NdPsXT3-4" target="foM4KtlyLQ7H9cVgBxTa-7">
          <mxGeometry width="100" height="100" relative="1" as="geometry">
            <mxPoint x="830" y="410" as="sourcePoint" />
            <mxPoint x="930" y="320" as="targetPoint" />
          </mxGeometry>
        </mxCell>
        <mxCell id="KlQoxb9SCwai2NdPsXT3-3" value="" style="edgeStyle=entityRelationEdgeStyle;fontSize=12;html=1;endArrow=none;startArrow=ERoneToMany;rounded=0;endFill=0;" edge="1" parent="1" target="KlQoxb9SCwai2NdPsXT3-4" source="foM4KtlyLQ7H9cVgBxTa-6">
          <mxGeometry width="100" height="100" relative="1" as="geometry">
            <mxPoint x="700" y="270" as="sourcePoint" />
            <mxPoint x="960" y="330" as="targetPoint" />
          </mxGeometry>
        </mxCell>
        <mxCell id="KlQoxb9SCwai2NdPsXT3-4" value="Categorized by" style="shape=rhombus;perimeter=rhombusPerimeter;whiteSpace=wrap;html=1;align=center;" vertex="1" parent="1">
          <mxGeometry x="740" y="350" width="120" height="60" as="geometry" />
        </mxCell>
        <mxCell id="KlQoxb9SCwai2NdPsXT3-5" value="Has" style="shape=rhombus;perimeter=rhombusPerimeter;whiteSpace=wrap;html=1;align=center;" vertex="1" parent="1">
          <mxGeometry x="100" y="350" width="120" height="60" as="geometry" />
        </mxCell>
        <mxCell id="KlQoxb9SCwai2NdPsXT3-6" value="" style="edgeStyle=entityRelationEdgeStyle;fontSize=12;html=1;endArrow=ERmandOne;rounded=0;entryX=1;entryY=0.75;entryDx=0;entryDy=0;" edge="1" parent="1" source="KlQoxb9SCwai2NdPsXT3-5" target="foM4KtlyLQ7H9cVgBxTa-30">
          <mxGeometry width="100" height="100" relative="1" as="geometry">
            <mxPoint x="120" y="270" as="sourcePoint" />
            <mxPoint x="70" y="410" as="targetPoint" />
          </mxGeometry>
        </mxCell>
        <mxCell id="KlQoxb9SCwai2NdPsXT3-7" value="Defines status" style="shape=rhombus;perimeter=rhombusPerimeter;whiteSpace=wrap;html=1;align=center;" vertex="1" parent="1">
          <mxGeometry x="440" y="460" width="120" height="60" as="geometry" />
        </mxCell>
        <mxCell id="KlQoxb9SCwai2NdPsXT3-8" value="" style="edgeStyle=entityRelationEdgeStyle;fontSize=12;html=1;endArrow=ERmandOne;rounded=0;" edge="1" parent="1" source="KlQoxb9SCwai2NdPsXT3-7" target="foM4KtlyLQ7H9cVgBxTa-14">
          <mxGeometry width="100" height="100" relative="1" as="geometry">
            <mxPoint x="470" y="620" as="sourcePoint" />
            <mxPoint x="570" y="520" as="targetPoint" />
          </mxGeometry>
        </mxCell>
        <mxCell id="KlQoxb9SCwai2NdPsXT3-9" value="" style="edgeStyle=entityRelationEdgeStyle;fontSize=12;html=1;endArrow=ERzeroToMany;endFill=1;rounded=0;" edge="1" parent="1" source="KlQoxb9SCwai2NdPsXT3-7" target="foM4KtlyLQ7H9cVgBxTa-15">
          <mxGeometry width="100" height="100" relative="1" as="geometry">
            <mxPoint x="340" y="570" as="sourcePoint" />
            <mxPoint x="440" y="470" as="targetPoint" />
          </mxGeometry>
        </mxCell>
        <mxCell id="KlQoxb9SCwai2NdPsXT3-10" value="Used in" style="shape=rhombus;perimeter=rhombusPerimeter;whiteSpace=wrap;html=1;align=center;" vertex="1" parent="1">
          <mxGeometry x="750" y="460" width="120" height="60" as="geometry" />
        </mxCell>
        <mxCell id="KlQoxb9SCwai2NdPsXT3-11" value="" style="edgeStyle=entityRelationEdgeStyle;fontSize=12;html=1;endArrow=ERmandOne;rounded=0;" edge="1" parent="1" source="KlQoxb9SCwai2NdPsXT3-10" target="foM4KtlyLQ7H9cVgBxTa-16">
          <mxGeometry width="100" height="100" relative="1" as="geometry">
            <mxPoint x="750" y="600" as="sourcePoint" />
            <mxPoint x="850" y="500" as="targetPoint" />
          </mxGeometry>
        </mxCell>
        <mxCell id="KlQoxb9SCwai2NdPsXT3-12" value="" style="edgeStyle=entityRelationEdgeStyle;fontSize=12;html=1;endArrow=ERmandOne;rounded=0;" edge="1" parent="1" source="KlQoxb9SCwai2NdPsXT3-10" target="foM4KtlyLQ7H9cVgBxTa-14">
          <mxGeometry width="100" height="100" relative="1" as="geometry">
            <mxPoint x="850" y="460" as="sourcePoint" />
            <mxPoint x="880" y="460" as="targetPoint" />
          </mxGeometry>
        </mxCell>
        <mxCell id="KlQoxb9SCwai2NdPsXT3-13" value="Assigned to" style="shape=rhombus;perimeter=rhombusPerimeter;whiteSpace=wrap;html=1;align=center;" vertex="1" parent="1">
          <mxGeometry x="590" y="550" width="120" height="60" as="geometry" />
        </mxCell>
        <mxCell id="KlQoxb9SCwai2NdPsXT3-20" style="edgeStyle=orthogonalEdgeStyle;rounded=0;orthogonalLoop=1;jettySize=auto;html=1;endArrow=ERoneToMany;endFill=0;" edge="1" parent="1" source="KlQoxb9SCwai2NdPsXT3-14" target="foM4KtlyLQ7H9cVgBxTa-15">
          <mxGeometry relative="1" as="geometry">
            <mxPoint x="340" y="670" as="targetPoint" />
            <Array as="points" />
          </mxGeometry>
        </mxCell>
        <mxCell id="KlQoxb9SCwai2NdPsXT3-14" value="Assigned to" style="shape=rhombus;perimeter=rhombusPerimeter;whiteSpace=wrap;html=1;align=center;" vertex="1" parent="1">
          <mxGeometry x="280" y="550" width="120" height="60" as="geometry" />
        </mxCell>
        <mxCell id="KlQoxb9SCwai2NdPsXT3-18" value="" style="edgeStyle=entityRelationEdgeStyle;fontSize=12;html=1;endArrow=ERoneToMany;rounded=0;" edge="1" parent="1" source="KlQoxb9SCwai2NdPsXT3-14" target="foM4KtlyLQ7H9cVgBxTa-13">
          <mxGeometry width="100" height="100" relative="1" as="geometry">
            <mxPoint x="250" y="630" as="sourcePoint" />
            <mxPoint x="350" y="530" as="targetPoint" />
          </mxGeometry>
        </mxCell>
        <mxCell id="KlQoxb9SCwai2NdPsXT3-21" value="" style="edgeStyle=entityRelationEdgeStyle;fontSize=12;html=1;endArrow=ERoneToMany;rounded=0;" edge="1" parent="1" source="KlQoxb9SCwai2NdPsXT3-13" target="foM4KtlyLQ7H9cVgBxTa-13">
          <mxGeometry width="100" height="100" relative="1" as="geometry">
            <mxPoint x="640" y="590" as="sourcePoint" />
            <mxPoint x="660" y="620" as="targetPoint" />
          </mxGeometry>
        </mxCell>
        <mxCell id="KlQoxb9SCwai2NdPsXT3-22" value="" style="edgeStyle=entityRelationEdgeStyle;fontSize=12;html=1;endArrow=ERmandOne;rounded=0;" edge="1" parent="1" source="KlQoxb9SCwai2NdPsXT3-13" target="foM4KtlyLQ7H9cVgBxTa-12">
          <mxGeometry width="100" height="100" relative="1" as="geometry">
            <mxPoint x="630" y="690" as="sourcePoint" />
            <mxPoint x="730" y="590" as="targetPoint" />
          </mxGeometry>
        </mxCell>
        <mxCell id="KlQoxb9SCwai2NdPsXT3-26" value="Details Of" style="shape=rhombus;perimeter=rhombusPerimeter;whiteSpace=wrap;html=1;align=center;" vertex="1" parent="1">
          <mxGeometry x="910" y="550" width="120" height="60" as="geometry" />
        </mxCell>
        <mxCell id="KlQoxb9SCwai2NdPsXT3-33" style="edgeStyle=orthogonalEdgeStyle;rounded=0;orthogonalLoop=1;jettySize=auto;html=1;endArrow=ERzeroToOne;endFill=0;" edge="1" parent="1" source="KlQoxb9SCwai2NdPsXT3-31" target="foM4KtlyLQ7H9cVgBxTa-18">
          <mxGeometry relative="1" as="geometry" />
        </mxCell>
        <mxCell id="KlQoxb9SCwai2NdPsXT3-31" value="Assigned to" style="shape=rhombus;perimeter=rhombusPerimeter;whiteSpace=wrap;html=1;align=center;" vertex="1" parent="1">
          <mxGeometry x="1110" y="460" width="120" height="60" as="geometry" />
        </mxCell>
        <mxCell id="KlQoxb9SCwai2NdPsXT3-36" style="edgeStyle=orthogonalEdgeStyle;rounded=0;orthogonalLoop=1;jettySize=auto;html=1;endArrow=ERoneToMany;endFill=0;" edge="1" parent="1" source="KlQoxb9SCwai2NdPsXT3-34" target="foM4KtlyLQ7H9cVgBxTa-10">
          <mxGeometry relative="1" as="geometry">
            <Array as="points">
              <mxPoint x="1080" y="200" />
            </Array>
          </mxGeometry>
        </mxCell>
        <mxCell id="KlQoxb9SCwai2NdPsXT3-34" value="Ordered" style="shape=rhombus;perimeter=rhombusPerimeter;whiteSpace=wrap;html=1;align=center;" vertex="1" parent="1">
          <mxGeometry x="1020" y="240" width="120" height="60" as="geometry" />
        </mxCell>
        <mxCell id="KlQoxb9SCwai2NdPsXT3-38" style="edgeStyle=orthogonalEdgeStyle;rounded=0;orthogonalLoop=1;jettySize=auto;html=1;endArrow=ERmandOne;endFill=0;" edge="1" parent="1" source="KlQoxb9SCwai2NdPsXT3-37" target="foM4KtlyLQ7H9cVgBxTa-9">
          <mxGeometry relative="1" as="geometry">
            <mxPoint x="710" y="40" as="targetPoint" />
          </mxGeometry>
        </mxCell>
        <mxCell id="KlQoxb9SCwai2NdPsXT3-39" style="edgeStyle=orthogonalEdgeStyle;rounded=0;orthogonalLoop=1;jettySize=auto;html=1;endArrow=ERzeroToMany;endFill=0;" edge="1" parent="1" source="KlQoxb9SCwai2NdPsXT3-37" target="foM4KtlyLQ7H9cVgBxTa-11">
          <mxGeometry relative="1" as="geometry" />
        </mxCell>
        <mxCell id="KlQoxb9SCwai2NdPsXT3-37" value="Details of" style="shape=rhombus;perimeter=rhombusPerimeter;whiteSpace=wrap;html=1;align=center;" vertex="1" parent="1">
          <mxGeometry x="770" y="110" width="120" height="60" as="geometry" />
        </mxCell>
        <mxCell id="KlQoxb9SCwai2NdPsXT3-41" style="edgeStyle=orthogonalEdgeStyle;rounded=0;orthogonalLoop=1;jettySize=auto;html=1;endArrow=ERzeroToOne;endFill=0;" edge="1" parent="1" source="KlQoxb9SCwai2NdPsXT3-40" target="foM4KtlyLQ7H9cVgBxTa-9">
          <mxGeometry relative="1" as="geometry">
            <Array as="points">
              <mxPoint x="940" y="110" />
              <mxPoint x="940" y="110" />
            </Array>
          </mxGeometry>
        </mxCell>
        <mxCell id="KlQoxb9SCwai2NdPsXT3-42" style="edgeStyle=orthogonalEdgeStyle;rounded=0;orthogonalLoop=1;jettySize=auto;html=1;endArrow=ERoneToMany;endFill=0;" edge="1" parent="1" source="KlQoxb9SCwai2NdPsXT3-40" target="foM4KtlyLQ7H9cVgBxTa-8">
          <mxGeometry relative="1" as="geometry">
            <Array as="points">
              <mxPoint x="870" />
            </Array>
          </mxGeometry>
        </mxCell>
        <mxCell id="KlQoxb9SCwai2NdPsXT3-40" value="Uses up" style="shape=rhombus;perimeter=rhombusPerimeter;whiteSpace=wrap;html=1;align=center;" vertex="1" parent="1">
          <mxGeometry x="810" y="40" width="120" height="60" as="geometry" />
        </mxCell>
        <mxCell id="KlQoxb9SCwai2NdPsXT3-44" style="edgeStyle=orthogonalEdgeStyle;rounded=0;orthogonalLoop=1;jettySize=auto;html=1;endArrow=ERmandOne;endFill=0;" edge="1" parent="1" source="KlQoxb9SCwai2NdPsXT3-43" target="foM4KtlyLQ7H9cVgBxTa-10">
          <mxGeometry relative="1" as="geometry" />
        </mxCell>
        <mxCell id="KlQoxb9SCwai2NdPsXT3-45" style="edgeStyle=orthogonalEdgeStyle;rounded=0;orthogonalLoop=1;jettySize=auto;html=1;endArrow=ERoneToMany;endFill=0;" edge="1" parent="1" source="KlQoxb9SCwai2NdPsXT3-43" target="foM4KtlyLQ7H9cVgBxTa-9">
          <mxGeometry relative="1" as="geometry">
            <Array as="points">
              <mxPoint x="1050" y="100" />
              <mxPoint x="1000" y="100" />
            </Array>
          </mxGeometry>
        </mxCell>
        <mxCell id="KlQoxb9SCwai2NdPsXT3-43" value="Order from" style="shape=rhombus;perimeter=rhombusPerimeter;whiteSpace=wrap;html=1;align=center;" vertex="1" parent="1">
          <mxGeometry x="990" y="20" width="120" height="60" as="geometry" />
        </mxCell>
        <mxCell id="KlQoxb9SCwai2NdPsXT3-48" style="edgeStyle=orthogonalEdgeStyle;rounded=0;orthogonalLoop=1;jettySize=auto;html=1;endArrow=ERoneToMany;endFill=0;" edge="1" parent="1" source="KlQoxb9SCwai2NdPsXT3-47" target="foM4KtlyLQ7H9cVgBxTa-7">
          <mxGeometry relative="1" as="geometry" />
        </mxCell>
        <mxCell id="KlQoxb9SCwai2NdPsXT3-49" style="edgeStyle=orthogonalEdgeStyle;rounded=0;orthogonalLoop=1;jettySize=auto;html=1;endArrow=ERmandOne;endFill=0;" edge="1" parent="1" source="KlQoxb9SCwai2NdPsXT3-47" target="foM4KtlyLQ7H9cVgBxTa-16">
          <mxGeometry relative="1" as="geometry" />
        </mxCell>
        <mxCell id="KlQoxb9SCwai2NdPsXT3-47" value="Ship for" style="shape=rhombus;perimeter=rhombusPerimeter;whiteSpace=wrap;html=1;align=center;" vertex="1" parent="1">
          <mxGeometry x="910" y="370" width="120" height="60" as="geometry" />
        </mxCell>
        <mxCell id="KlQoxb9SCwai2NdPsXT3-51" style="edgeStyle=orthogonalEdgeStyle;rounded=0;orthogonalLoop=1;jettySize=auto;html=1;endArrow=ERzeroToMany;endFill=0;" edge="1" parent="1" source="KlQoxb9SCwai2NdPsXT3-50" target="foM4KtlyLQ7H9cVgBxTa-9">
          <mxGeometry relative="1" as="geometry" />
        </mxCell>
        <mxCell id="KlQoxb9SCwai2NdPsXT3-52" style="edgeStyle=orthogonalEdgeStyle;rounded=0;orthogonalLoop=1;jettySize=auto;html=1;" edge="1" parent="1" source="KlQoxb9SCwai2NdPsXT3-50" target="foM4KtlyLQ7H9cVgBxTa-7">
          <mxGeometry relative="1" as="geometry" />
        </mxCell>
        <mxCell id="KlQoxb9SCwai2NdPsXT3-50" value="Update stock" style="shape=rhombus;perimeter=rhombusPerimeter;whiteSpace=wrap;html=1;align=center;" vertex="1" parent="1">
          <mxGeometry x="910" y="190" width="120" height="60" as="geometry" />
        </mxCell>
      </root>
    </mxGraphModel>
  </diagram>
</mxfile>
